<?xml version="1.0" standalone="no"?>
<!DOCTYPE svg PUBLIC "-//W3C//DTD SVG 20010904//EN"
 "http://www.w3.org/TR/2001/REC-SVG-20010904/DTD/svg10.dtd">
<svg version="1.0" xmlns="http://www.w3.org/2000/svg"
 width="131.000000pt" height="137.000000pt" viewBox="0 0 131.000000 137.000000"
 preserveAspectRatio="xMidYMid meet">

<g transform="translate(0.000000,137.000000) scale(0.100000,-0.100000)"
fill="#000000" stroke="none">
<path d="M254 1346 c-3 -8 -4 -29 -2 -48 l3 -33 473 -3 472 -2 0 -570 0 -570
-472 -2 -473 -3 0 -45 0 -45 523 -3 522 -2 0 670 0 670 -520 0 c-438 0 -521
-2 -526 -14z"/>
<path d="M254 1207 c-3 -8 -4 -30 -2 -48 l3 -34 82 -11 c206 -30 323 -97 533
-308 l115 -116 -120 -121 c-66 -66 -147 -140 -181 -165 -108 -78 -230 -124
-370 -142 l-59 -7 -3 -43 c-2 -33 1 -44 14 -49 28 -11 178 15 263 45 144 51
210 99 411 298 l185 183 -160 161 c-88 89 -186 181 -219 206 -111 84 -270 145
-416 160 -58 5 -71 4 -76 -9z"/>
<path d="M657 1204 c-6 -6 256 -209 301 -233 25 -13 52 4 52 34 0 17 -16 35
-60 67 -33 23 -60 46 -60 51 0 4 41 7 90 7 l90 0 0 -153 c0 -162 4 -177 47
-177 32 0 34 17 31 225 l-3 180 -241 3 c-132 1 -243 -1 -247 -4z"/>
<path d="M254 1087 c-3 -8 -4 -30 -2 -48 3 -30 7 -33 63 -49 79 -21 112 -40
156 -87 114 -119 118 -295 11 -414 -50 -56 -103 -87 -177 -103 -50 -11 -50
-12 -53 -54 -4 -52 7 -58 82 -42 120 25 232 114 289 229 30 61 32 73 32 166 0
114 -10 151 -65 233 -64 95 -167 160 -282 177 -38 6 -49 4 -54 -8z"/>
<path d="M102 873 l3 -48 48 -3 47 -3 0 50 0 51 -51 0 -50 0 3 -47z"/>
<path d="M257 854 c-4 -4 -7 -25 -7 -46 l0 -38 -55 0 -56 0 3 -77 3 -78 53 -3
52 -3 0 -40 c0 -50 17 -58 72 -33 116 52 133 221 29 289 -40 27 -83 40 -94 29z"/>
<path d="M0 690 c0 -29 2 -31 33 -28 27 2 32 7 32 28 0 21 -5 26 -32 28 -31 3
-33 1 -33 -28z"/>
<path d="M70 590 c0 -5 4 -10 9 -10 6 0 13 5 16 10 3 6 -1 10 -9 10 -9 0 -16
-4 -16 -10z"/>
<path d="M1082 567 c-7 -8 -13 -73 -14 -163 l-3 -149 -79 -3 c-44 -2 -83 1
-88 6 -5 5 18 28 52 52 42 30 60 50 60 66 0 26 -24 48 -45 40 -13 -4 -282
-203 -309 -227 -6 -5 101 -9 242 -9 l252 0 0 184 c0 101 -3 191 -6 200 -7 19
-47 21 -62 3z"/>
<path d="M120 505 c0 -22 4 -26 23 -23 14 2 22 10 22 23 0 13 -8 21 -22 23
-19 3 -23 -1 -23 -23z"/>
</g>
</svg>
