<?xml version="1.0" standalone="no"?>
<!DOCTYPE svg PUBLIC "-//W3C//DTD SVG 20010904//EN"
 "http://www.w3.org/TR/2001/REC-SVG-20010904/DTD/svg10.dtd">
<svg version="1.0" xmlns="http://www.w3.org/2000/svg"
 width="558.000000pt" height="447.000000pt" viewBox="0 0 558.000000 447.000000"
 preserveAspectRatio="xMidYMid meet">

<g transform="translate(0.000000,447.000000) scale(0.100000,-0.100000)"
fill="#000000" stroke="none">
<path d="M2384 3396 c-3 -8 -4 -29 -2 -48 l3 -33 473 -3 472 -2 0 -570 0 -570
-472 -2 -473 -3 0 -45 0 -45 523 -3 522 -2 0 670 0 670 -520 0 c-438 0 -521
-2 -526 -14z"/>
<path d="M2384 3257 c-3 -8 -4 -30 -2 -48 l3 -34 82 -11 c206 -30 323 -97 533
-308 l115 -116 -120 -121 c-66 -66 -147 -140 -181 -165 -108 -78 -230 -124
-370 -142 l-59 -7 -3 -43 c-2 -33 1 -44 14 -49 28 -11 178 15 263 45 144 51
210 99 411 298 l185 183 -160 161 c-88 89 -186 181 -219 206 -111 84 -270 145
-416 160 -58 5 -71 4 -76 -9z"/>
<path d="M2787 3254 c-6 -6 256 -209 301 -233 25 -13 52 4 52 34 0 17 -16 35
-60 67 -33 23 -60 46 -60 51 0 4 41 7 90 7 l90 0 0 -153 c0 -162 4 -177 47
-177 32 0 34 17 31 225 l-3 180 -241 3 c-132 1 -243 -1 -247 -4z"/>
<path d="M2384 3137 c-3 -8 -4 -30 -2 -48 3 -30 7 -33 63 -49 79 -21 112 -40
156 -87 114 -119 118 -295 11 -414 -50 -56 -103 -87 -177 -103 -50 -11 -50
-12 -53 -54 -4 -52 7 -58 82 -42 120 25 232 114 289 229 30 61 32 73 32 166 0
114 -10 151 -65 233 -64 95 -167 160 -282 177 -38 6 -49 4 -54 -8z"/>
<path d="M2232 2923 l3 -48 48 -3 47 -3 0 50 0 51 -51 0 -50 0 3 -47z"/>
<path d="M2387 2904 c-4 -4 -7 -25 -7 -46 l0 -38 -55 0 -56 0 3 -77 3 -78 53
-3 52 -3 0 -40 c0 -50 17 -58 72 -33 116 52 133 221 29 289 -40 27 -83 40 -94
29z"/>
<path d="M2130 2740 c0 -29 2 -31 33 -28 27 2 32 7 32 28 0 21 -5 26 -32 28
-31 3 -33 1 -33 -28z"/>
<path d="M2200 2640 c0 -5 4 -10 9 -10 6 0 13 5 16 10 3 6 -1 10 -9 10 -9 0
-16 -4 -16 -10z"/>
<path d="M3212 2617 c-7 -8 -13 -73 -14 -163 l-3 -149 -79 -3 c-44 -2 -83 1
-88 6 -5 5 18 28 52 52 42 30 60 50 60 66 0 26 -24 48 -45 40 -13 -4 -282
-203 -309 -227 -6 -5 101 -9 242 -9 l252 0 0 184 c0 101 -3 191 -6 200 -7 19
-47 21 -62 3z"/>
<path d="M2250 2555 c0 -22 4 -26 23 -23 14 2 22 10 22 23 0 13 -8 21 -22 23
-19 3 -23 -1 -23 -23z"/>
<path d="M710 1665 l0 -155 80 0 c93 0 135 14 172 59 39 46 46 108 18 166 -32
65 -75 85 -185 85 l-85 0 0 -155z m181 72 c46 -35 50 -88 9 -128 -25 -26 -36
-30 -72 -27 l-43 3 -3 69 c-2 38 -1 75 2 83 7 17 85 17 107 0z"/>
<path d="M1090 1665 l0 -155 120 0 120 0 0 35 0 35 -85 0 c-84 0 -85 0 -85 25
0 24 2 25 75 25 l75 0 0 35 0 35 -75 0 c-73 0 -75 1 -75 25 0 25 1 25 85 25
l85 0 0 35 0 35 -120 0 -120 0 0 -155z"/>
<path d="M1420 1665 l0 -155 35 0 35 0 0 85 c0 47 3 85 8 85 4 -1 34 -39 66
-85 54 -78 62 -85 92 -85 l34 0 0 155 0 155 -35 0 -34 0 -3 -92 -3 -93 -63 93
c-59 86 -65 92 -97 92 l-35 0 0 -155z"/>
<path d="M1791 1718 c0 -165 30 -211 132 -212 112 -2 137 34 137 199 l0 115
-35 0 -35 0 0 -103 c0 -118 -9 -140 -58 -140 -56 0 -62 14 -62 134 l0 109 -40
0 -40 0 1 -102z"/>
<path d="M2160 1665 l0 -155 35 0 35 0 0 85 c0 47 3 85 8 85 4 0 34 -39 67
-85 57 -82 62 -85 95 -83 l35 3 0 150 0 150 -35 0 -35 0 -5 -89 -5 -90 -60 92
c-58 89 -61 92 -97 92 l-38 0 0 -155z"/>
<path d="M2600 1798 c-55 -38 -74 -72 -74 -131 0 -99 63 -162 164 -161 72 0
100 16 100 55 0 31 -1 31 -37 23 -21 -4 -54 -7 -73 -7 -75 3 -108 98 -52 149
23 23 34 25 77 21 28 -2 58 -8 68 -12 27 -12 23 49 -5 69 -35 25 -128 21 -168
-6z"/>
<path d="M2880 1665 l0 -155 35 0 35 0 0 155 0 155 -35 0 -35 0 0 -155z"/>
<path d="M3085 1678 c-31 -79 -59 -149 -62 -155 -4 -9 7 -13 34 -13 35 0 41 4
54 33 14 31 16 32 81 35 l67 3 15 -36 c13 -31 19 -35 50 -35 20 0 36 3 36 8 0
4 -26 72 -58 152 l-57 145 -51 3 -52 3 -57 -143z m132 18 c15 -44 11 -56 -20
-56 -42 0 -48 12 -30 58 19 50 32 50 50 -2z"/>
<path d="M3570 1665 l0 -155 110 0 110 0 0 35 0 35 -75 0 -75 0 0 120 0 120
-35 0 -35 0 0 -155z"/>
<path d="M3937 1798 c-102 -59 -98 -220 6 -275 46 -24 130 -22 164 3 72 54 93
146 51 218 -44 74 -144 98 -221 54z m141 -70 c30 -34 35 -68 15 -107 -21 -40
-59 -55 -104 -39 -36 12 -49 35 -49 83 0 74 89 114 138 63z"/>
<path d="M4390 1713 c0 -60 -4 -113 -8 -119 -17 -25 -52 -24 -115 1 -16 7 -18
3 -15 -31 3 -36 6 -40 43 -52 50 -16 96 -8 132 23 28 23 28 25 31 154 l4 131
-36 0 -36 0 0 -107z"/>
<path d="M4596 1673 c-31 -82 -56 -151 -56 -155 0 -5 15 -8 33 -8 28 0 36 5
50 35 17 35 17 35 82 35 66 0 66 0 81 -35 12 -31 19 -35 49 -35 19 0 35 3 35
8 0 4 -25 73 -56 155 l-57 147 -52 0 -52 0 -57 -147z m134 22 c13 -40 7 -55
-23 -55 -41 0 -46 12 -26 58 21 49 32 48 49 -3z"/>
</g>
</svg>
